<mxfile host="Electron" modified="2024-07-13T14:47:38.054Z" agent="Mozilla/5.0 (Windows NT 10.0; Win64; x64) AppleWebKit/537.36 (KHTML, like Gecko) draw.io/24.6.4 Chrome/124.0.6367.207 Electron/30.0.6 Safari/537.36" etag="4SZKL2PxyFuyDbocZswJ" version="24.6.4" type="device">
  <diagram id="6a731a19-8d31-9384-78a2-239565b7b9f0" name="Page-1">
    <mxGraphModel dx="1373" dy="1025" grid="1" gridSize="10" guides="1" tooltips="1" connect="1" arrows="1" fold="1" page="1" pageScale="1" pageWidth="1169" pageHeight="827" background="none" math="0" shadow="0">
      <root>
        <mxCell id="0" />
        <mxCell id="1" parent="0" />
        <mxCell id="v0VebdJsCcfLntOoxzs_-57" style="edgeStyle=orthogonalEdgeStyle;rounded=0;orthogonalLoop=1;jettySize=auto;html=1;exitX=0.5;exitY=1;exitDx=0;exitDy=0;entryX=0.5;entryY=0;entryDx=0;entryDy=0;" parent="1" source="v0VebdJsCcfLntOoxzs_-55" target="v0VebdJsCcfLntOoxzs_-56" edge="1">
          <mxGeometry relative="1" as="geometry" />
        </mxCell>
        <mxCell id="v0VebdJsCcfLntOoxzs_-55" value="&lt;font style=&quot;font-size: 16px;&quot;&gt;Start the configuration&lt;/font&gt;" style="ellipse;whiteSpace=wrap;html=1;" parent="1" vertex="1">
          <mxGeometry x="480" y="110" width="180" height="80" as="geometry" />
        </mxCell>
        <mxCell id="v0VebdJsCcfLntOoxzs_-61" style="edgeStyle=orthogonalEdgeStyle;rounded=0;orthogonalLoop=1;jettySize=auto;html=1;exitX=1;exitY=0.5;exitDx=0;exitDy=0;" parent="1" source="v0VebdJsCcfLntOoxzs_-56" target="v0VebdJsCcfLntOoxzs_-59" edge="1">
          <mxGeometry relative="1" as="geometry" />
        </mxCell>
        <mxCell id="v0VebdJsCcfLntOoxzs_-56" value="&lt;font style=&quot;font-size: 15px;&quot;&gt;Choose gender&lt;/font&gt;" style="rounded=0;whiteSpace=wrap;html=1;" parent="1" vertex="1">
          <mxGeometry x="510" y="260" width="120" height="60" as="geometry" />
        </mxCell>
        <mxCell id="v0VebdJsCcfLntOoxzs_-63" style="edgeStyle=orthogonalEdgeStyle;rounded=0;orthogonalLoop=1;jettySize=auto;html=1;exitX=0.5;exitY=1;exitDx=0;exitDy=0;" parent="1" source="v0VebdJsCcfLntOoxzs_-58" target="v0VebdJsCcfLntOoxzs_-62" edge="1">
          <mxGeometry relative="1" as="geometry" />
        </mxCell>
        <mxCell id="v0VebdJsCcfLntOoxzs_-58" value="Male" style="rhombus;whiteSpace=wrap;html=1;fillColor=#000000;strokeColor=#6c8ebf;" parent="1" vertex="1">
          <mxGeometry x="400" y="350" width="80" height="80" as="geometry" />
        </mxCell>
        <mxCell id="v0VebdJsCcfLntOoxzs_-64" style="edgeStyle=orthogonalEdgeStyle;rounded=0;orthogonalLoop=1;jettySize=auto;html=1;exitX=0.5;exitY=1;exitDx=0;exitDy=0;entryX=0.5;entryY=0;entryDx=0;entryDy=0;" parent="1" source="v0VebdJsCcfLntOoxzs_-59" target="v0VebdJsCcfLntOoxzs_-62" edge="1">
          <mxGeometry relative="1" as="geometry" />
        </mxCell>
        <mxCell id="v0VebdJsCcfLntOoxzs_-59" value="Female" style="rhombus;whiteSpace=wrap;html=1;fillColor=#000000;strokeColor=#9673a6;" parent="1" vertex="1">
          <mxGeometry x="660" y="350" width="80" height="80" as="geometry" />
        </mxCell>
        <mxCell id="v0VebdJsCcfLntOoxzs_-60" style="edgeStyle=orthogonalEdgeStyle;rounded=0;orthogonalLoop=1;jettySize=auto;html=1;exitX=0;exitY=0.5;exitDx=0;exitDy=0;" parent="1" source="v0VebdJsCcfLntOoxzs_-56" target="v0VebdJsCcfLntOoxzs_-58" edge="1">
          <mxGeometry relative="1" as="geometry" />
        </mxCell>
        <mxCell id="v0VebdJsCcfLntOoxzs_-71" style="edgeStyle=orthogonalEdgeStyle;rounded=0;orthogonalLoop=1;jettySize=auto;html=1;exitX=0.5;exitY=1;exitDx=0;exitDy=0;" parent="1" source="v0VebdJsCcfLntOoxzs_-62" target="v0VebdJsCcfLntOoxzs_-70" edge="1">
          <mxGeometry relative="1" as="geometry" />
        </mxCell>
        <mxCell id="v0VebdJsCcfLntOoxzs_-82" style="edgeStyle=orthogonalEdgeStyle;rounded=0;orthogonalLoop=1;jettySize=auto;html=1;exitX=0.5;exitY=1;exitDx=0;exitDy=0;entryX=0.5;entryY=0;entryDx=0;entryDy=0;" parent="1" source="v0VebdJsCcfLntOoxzs_-62" target="v0VebdJsCcfLntOoxzs_-81" edge="1">
          <mxGeometry relative="1" as="geometry" />
        </mxCell>
        <mxCell id="v0VebdJsCcfLntOoxzs_-62" value="&lt;font style=&quot;font-size: 14px;&quot;&gt;Choose Target&lt;/font&gt;" style="rounded=0;whiteSpace=wrap;html=1;" parent="1" vertex="1">
          <mxGeometry x="510" y="470" width="120" height="60" as="geometry" />
        </mxCell>
        <mxCell id="v0VebdJsCcfLntOoxzs_-95" style="edgeStyle=orthogonalEdgeStyle;rounded=0;orthogonalLoop=1;jettySize=auto;html=1;exitX=0.5;exitY=1;exitDx=0;exitDy=0;entryX=0.5;entryY=0;entryDx=0;entryDy=0;" parent="1" source="v0VebdJsCcfLntOoxzs_-65" target="v0VebdJsCcfLntOoxzs_-93" edge="1">
          <mxGeometry relative="1" as="geometry" />
        </mxCell>
        <mxCell id="v0VebdJsCcfLntOoxzs_-65" value="Infant" style="rhombus;whiteSpace=wrap;html=1;fillColor=#020302;strokeColor=#82b366;" parent="1" vertex="1">
          <mxGeometry x="380" y="720" width="80" height="80" as="geometry" />
        </mxCell>
        <mxCell id="v0VebdJsCcfLntOoxzs_-96" style="edgeStyle=orthogonalEdgeStyle;rounded=0;orthogonalLoop=1;jettySize=auto;html=1;exitX=0.5;exitY=1;exitDx=0;exitDy=0;entryX=0.5;entryY=0;entryDx=0;entryDy=0;" parent="1" source="v0VebdJsCcfLntOoxzs_-66" target="v0VebdJsCcfLntOoxzs_-93" edge="1">
          <mxGeometry relative="1" as="geometry" />
        </mxCell>
        <mxCell id="v0VebdJsCcfLntOoxzs_-66" value="Child" style="rhombus;whiteSpace=wrap;html=1;fillColor=#020302;strokeColor=#82b366;" parent="1" vertex="1">
          <mxGeometry x="500" y="720" width="80" height="80" as="geometry" />
        </mxCell>
        <mxCell id="v0VebdJsCcfLntOoxzs_-97" style="edgeStyle=orthogonalEdgeStyle;rounded=0;orthogonalLoop=1;jettySize=auto;html=1;exitX=0.5;exitY=1;exitDx=0;exitDy=0;" parent="1" source="v0VebdJsCcfLntOoxzs_-67" target="v0VebdJsCcfLntOoxzs_-93" edge="1">
          <mxGeometry relative="1" as="geometry" />
        </mxCell>
        <mxCell id="v0VebdJsCcfLntOoxzs_-67" value="Teenager" style="rhombus;whiteSpace=wrap;html=1;fillColor=#020302;strokeColor=#82b366;" parent="1" vertex="1">
          <mxGeometry x="630" y="720" width="80" height="80" as="geometry" />
        </mxCell>
        <mxCell id="v0VebdJsCcfLntOoxzs_-76" style="edgeStyle=orthogonalEdgeStyle;rounded=0;orthogonalLoop=1;jettySize=auto;html=1;exitX=0.5;exitY=1;exitDx=0;exitDy=0;entryX=0.5;entryY=0;entryDx=0;entryDy=0;fillColor=#dae8fc;strokeColor=#6c8ebf;" parent="1" source="v0VebdJsCcfLntOoxzs_-70" target="v0VebdJsCcfLntOoxzs_-65" edge="1">
          <mxGeometry relative="1" as="geometry" />
        </mxCell>
        <mxCell id="v0VebdJsCcfLntOoxzs_-77" style="edgeStyle=orthogonalEdgeStyle;rounded=0;orthogonalLoop=1;jettySize=auto;html=1;exitX=0.5;exitY=1;exitDx=0;exitDy=0;entryX=0.5;entryY=0;entryDx=0;entryDy=0;fillColor=#dae8fc;strokeColor=#6c8ebf;" parent="1" source="v0VebdJsCcfLntOoxzs_-70" target="v0VebdJsCcfLntOoxzs_-66" edge="1">
          <mxGeometry relative="1" as="geometry" />
        </mxCell>
        <mxCell id="v0VebdJsCcfLntOoxzs_-78" style="edgeStyle=orthogonalEdgeStyle;rounded=0;orthogonalLoop=1;jettySize=auto;html=1;exitX=0.5;exitY=1;exitDx=0;exitDy=0;entryX=0.5;entryY=0;entryDx=0;entryDy=0;fillColor=#dae8fc;strokeColor=#6c8ebf;" parent="1" source="v0VebdJsCcfLntOoxzs_-70" target="v0VebdJsCcfLntOoxzs_-67" edge="1">
          <mxGeometry relative="1" as="geometry" />
        </mxCell>
        <mxCell id="v0VebdJsCcfLntOoxzs_-80" style="edgeStyle=orthogonalEdgeStyle;rounded=0;orthogonalLoop=1;jettySize=auto;html=1;exitX=0.5;exitY=1;exitDx=0;exitDy=0;entryX=0.5;entryY=0;entryDx=0;entryDy=0;fillColor=#dae8fc;strokeColor=#6c8ebf;" parent="1" source="v0VebdJsCcfLntOoxzs_-70" target="v0VebdJsCcfLntOoxzs_-79" edge="1">
          <mxGeometry relative="1" as="geometry" />
        </mxCell>
        <mxCell id="v0VebdJsCcfLntOoxzs_-91" style="edgeStyle=orthogonalEdgeStyle;rounded=0;orthogonalLoop=1;jettySize=auto;html=1;exitX=0.5;exitY=1;exitDx=0;exitDy=0;entryX=1;entryY=0;entryDx=0;entryDy=0;fillColor=#dae8fc;strokeColor=#6c8ebf;" parent="1" source="v0VebdJsCcfLntOoxzs_-70" target="v0VebdJsCcfLntOoxzs_-89" edge="1">
          <mxGeometry relative="1" as="geometry" />
        </mxCell>
        <mxCell id="v0VebdJsCcfLntOoxzs_-70" value="MaleOptions" style="shape=parallelogram;perimeter=parallelogramPerimeter;whiteSpace=wrap;html=1;fixedSize=1;fillColor=#000000;strokeColor=#6c8ebf;" parent="1" vertex="1">
          <mxGeometry x="390" y="580" width="120" height="60" as="geometry" />
        </mxCell>
        <mxCell id="v0VebdJsCcfLntOoxzs_-94" style="edgeStyle=orthogonalEdgeStyle;rounded=0;orthogonalLoop=1;jettySize=auto;html=1;exitX=0.5;exitY=1;exitDx=0;exitDy=0;" parent="1" source="v0VebdJsCcfLntOoxzs_-79" target="v0VebdJsCcfLntOoxzs_-93" edge="1">
          <mxGeometry relative="1" as="geometry" />
        </mxCell>
        <mxCell id="v0VebdJsCcfLntOoxzs_-79" value="Man" style="rhombus;whiteSpace=wrap;html=1;fillColor=#000000;strokeColor=#6c8ebf;" parent="1" vertex="1">
          <mxGeometry x="270" y="720" width="80" height="80" as="geometry" />
        </mxCell>
        <mxCell id="v0VebdJsCcfLntOoxzs_-83" style="edgeStyle=orthogonalEdgeStyle;rounded=0;orthogonalLoop=1;jettySize=auto;html=1;exitX=0.25;exitY=1;exitDx=0;exitDy=0;entryX=1;entryY=0;entryDx=0;entryDy=0;fillColor=#e1d5e7;strokeColor=#9673a6;" parent="1" source="v0VebdJsCcfLntOoxzs_-81" target="v0VebdJsCcfLntOoxzs_-66" edge="1">
          <mxGeometry relative="1" as="geometry" />
        </mxCell>
        <mxCell id="v0VebdJsCcfLntOoxzs_-84" style="edgeStyle=orthogonalEdgeStyle;rounded=0;orthogonalLoop=1;jettySize=auto;html=1;exitX=0.25;exitY=1;exitDx=0;exitDy=0;entryX=1;entryY=0;entryDx=0;entryDy=0;fillColor=#e1d5e7;strokeColor=#9673a6;" parent="1" source="v0VebdJsCcfLntOoxzs_-81" target="v0VebdJsCcfLntOoxzs_-67" edge="1">
          <mxGeometry relative="1" as="geometry" />
        </mxCell>
        <mxCell id="v0VebdJsCcfLntOoxzs_-85" style="edgeStyle=orthogonalEdgeStyle;rounded=0;orthogonalLoop=1;jettySize=auto;html=1;exitX=0.25;exitY=1;exitDx=0;exitDy=0;entryX=1;entryY=0;entryDx=0;entryDy=0;fillColor=#e1d5e7;strokeColor=#9673a6;" parent="1" source="v0VebdJsCcfLntOoxzs_-81" target="v0VebdJsCcfLntOoxzs_-65" edge="1">
          <mxGeometry relative="1" as="geometry" />
        </mxCell>
        <mxCell id="v0VebdJsCcfLntOoxzs_-88" style="edgeStyle=orthogonalEdgeStyle;rounded=0;orthogonalLoop=1;jettySize=auto;html=1;exitX=0.25;exitY=1;exitDx=0;exitDy=0;fillColor=#e1d5e7;strokeColor=#9673a6;" parent="1" source="v0VebdJsCcfLntOoxzs_-81" target="v0VebdJsCcfLntOoxzs_-87" edge="1">
          <mxGeometry relative="1" as="geometry" />
        </mxCell>
        <mxCell id="v0VebdJsCcfLntOoxzs_-90" style="edgeStyle=orthogonalEdgeStyle;rounded=0;orthogonalLoop=1;jettySize=auto;html=1;exitX=0.25;exitY=1;exitDx=0;exitDy=0;entryX=0.5;entryY=0;entryDx=0;entryDy=0;fillColor=#e1d5e7;strokeColor=#9673a6;" parent="1" source="v0VebdJsCcfLntOoxzs_-81" target="v0VebdJsCcfLntOoxzs_-89" edge="1">
          <mxGeometry relative="1" as="geometry" />
        </mxCell>
        <mxCell id="v0VebdJsCcfLntOoxzs_-81" value="&lt;font color=&quot;#fafafa&quot;&gt;FemaleOptions&lt;/font&gt;" style="shape=parallelogram;perimeter=parallelogramPerimeter;whiteSpace=wrap;html=1;fixedSize=1;fillColor=#000000;strokeColor=#9673a6;" parent="1" vertex="1">
          <mxGeometry x="660" y="580" width="120" height="60" as="geometry" />
        </mxCell>
        <mxCell id="v0VebdJsCcfLntOoxzs_-98" style="edgeStyle=orthogonalEdgeStyle;rounded=0;orthogonalLoop=1;jettySize=auto;html=1;exitX=0.5;exitY=1;exitDx=0;exitDy=0;" parent="1" source="v0VebdJsCcfLntOoxzs_-87" target="v0VebdJsCcfLntOoxzs_-93" edge="1">
          <mxGeometry relative="1" as="geometry" />
        </mxCell>
        <mxCell id="v0VebdJsCcfLntOoxzs_-87" value="Woman" style="rhombus;whiteSpace=wrap;html=1;fillColor=#020302;strokeColor=#9673a6;" parent="1" vertex="1">
          <mxGeometry x="760" y="720" width="80" height="80" as="geometry" />
        </mxCell>
        <mxCell id="v0VebdJsCcfLntOoxzs_-99" style="edgeStyle=orthogonalEdgeStyle;rounded=0;orthogonalLoop=1;jettySize=auto;html=1;exitX=0.5;exitY=1;exitDx=0;exitDy=0;entryX=0.5;entryY=0;entryDx=0;entryDy=0;" parent="1" source="v0VebdJsCcfLntOoxzs_-89" target="v0VebdJsCcfLntOoxzs_-93" edge="1">
          <mxGeometry relative="1" as="geometry" />
        </mxCell>
        <mxCell id="v0VebdJsCcfLntOoxzs_-89" value="Unisex" style="rhombus;whiteSpace=wrap;html=1;fillColor=#020302;strokeColor=#82b366;" parent="1" vertex="1">
          <mxGeometry x="890" y="720" width="80" height="80" as="geometry" />
        </mxCell>
        <mxCell id="O93y_8Ig9oeWtu7VwPQm-6" style="edgeStyle=orthogonalEdgeStyle;rounded=0;orthogonalLoop=1;jettySize=auto;html=1;exitX=0.5;exitY=1;exitDx=0;exitDy=0;entryX=0.5;entryY=0;entryDx=0;entryDy=0;" edge="1" parent="1" source="v0VebdJsCcfLntOoxzs_-93" target="O93y_8Ig9oeWtu7VwPQm-3">
          <mxGeometry relative="1" as="geometry" />
        </mxCell>
        <mxCell id="O93y_8Ig9oeWtu7VwPQm-7" style="edgeStyle=orthogonalEdgeStyle;rounded=0;orthogonalLoop=1;jettySize=auto;html=1;exitX=0.5;exitY=1;exitDx=0;exitDy=0;entryX=0.5;entryY=0;entryDx=0;entryDy=0;" edge="1" parent="1" source="v0VebdJsCcfLntOoxzs_-93" target="O93y_8Ig9oeWtu7VwPQm-1">
          <mxGeometry relative="1" as="geometry" />
        </mxCell>
        <mxCell id="O93y_8Ig9oeWtu7VwPQm-8" style="edgeStyle=orthogonalEdgeStyle;rounded=0;orthogonalLoop=1;jettySize=auto;html=1;exitX=0.5;exitY=1;exitDx=0;exitDy=0;" edge="1" parent="1" source="v0VebdJsCcfLntOoxzs_-93" target="O93y_8Ig9oeWtu7VwPQm-2">
          <mxGeometry relative="1" as="geometry" />
        </mxCell>
        <mxCell id="O93y_8Ig9oeWtu7VwPQm-9" style="edgeStyle=orthogonalEdgeStyle;rounded=0;orthogonalLoop=1;jettySize=auto;html=1;exitX=0.5;exitY=1;exitDx=0;exitDy=0;" edge="1" parent="1" source="v0VebdJsCcfLntOoxzs_-93" target="O93y_8Ig9oeWtu7VwPQm-4">
          <mxGeometry relative="1" as="geometry" />
        </mxCell>
        <mxCell id="O93y_8Ig9oeWtu7VwPQm-10" style="edgeStyle=orthogonalEdgeStyle;rounded=0;orthogonalLoop=1;jettySize=auto;html=1;exitX=0.5;exitY=1;exitDx=0;exitDy=0;entryX=0.5;entryY=0;entryDx=0;entryDy=0;" edge="1" parent="1" source="v0VebdJsCcfLntOoxzs_-93" target="O93y_8Ig9oeWtu7VwPQm-5">
          <mxGeometry relative="1" as="geometry" />
        </mxCell>
        <mxCell id="v0VebdJsCcfLntOoxzs_-93" value="&lt;span style=&quot;font-size: 14px;&quot;&gt;Choose Clothes&lt;/span&gt;" style="rounded=0;whiteSpace=wrap;html=1;" parent="1" vertex="1">
          <mxGeometry x="540" y="930" width="120" height="60" as="geometry" />
        </mxCell>
        <mxCell id="O93y_8Ig9oeWtu7VwPQm-12" style="edgeStyle=orthogonalEdgeStyle;rounded=0;orthogonalLoop=1;jettySize=auto;html=1;exitX=0.5;exitY=1;exitDx=0;exitDy=0;entryX=0.5;entryY=0;entryDx=0;entryDy=0;" edge="1" parent="1" source="O93y_8Ig9oeWtu7VwPQm-1" target="O93y_8Ig9oeWtu7VwPQm-11">
          <mxGeometry relative="1" as="geometry" />
        </mxCell>
        <mxCell id="O93y_8Ig9oeWtu7VwPQm-1" value="Underwear" style="rounded=0;whiteSpace=wrap;html=1;" vertex="1" parent="1">
          <mxGeometry x="190" y="1050" width="120" height="60" as="geometry" />
        </mxCell>
        <mxCell id="O93y_8Ig9oeWtu7VwPQm-13" style="edgeStyle=orthogonalEdgeStyle;rounded=0;orthogonalLoop=1;jettySize=auto;html=1;exitX=0.5;exitY=1;exitDx=0;exitDy=0;entryX=0.5;entryY=0;entryDx=0;entryDy=0;" edge="1" parent="1" source="O93y_8Ig9oeWtu7VwPQm-2" target="O93y_8Ig9oeWtu7VwPQm-11">
          <mxGeometry relative="1" as="geometry" />
        </mxCell>
        <mxCell id="O93y_8Ig9oeWtu7VwPQm-2" value="Shoes" style="rounded=0;whiteSpace=wrap;html=1;" vertex="1" parent="1">
          <mxGeometry x="365" y="1050" width="120" height="60" as="geometry" />
        </mxCell>
        <mxCell id="O93y_8Ig9oeWtu7VwPQm-14" style="edgeStyle=orthogonalEdgeStyle;rounded=0;orthogonalLoop=1;jettySize=auto;html=1;exitX=0.5;exitY=1;exitDx=0;exitDy=0;entryX=0.5;entryY=0;entryDx=0;entryDy=0;" edge="1" parent="1" source="O93y_8Ig9oeWtu7VwPQm-3" target="O93y_8Ig9oeWtu7VwPQm-11">
          <mxGeometry relative="1" as="geometry" />
        </mxCell>
        <mxCell id="O93y_8Ig9oeWtu7VwPQm-3" value="UpperClothes" style="rounded=0;whiteSpace=wrap;html=1;" vertex="1" parent="1">
          <mxGeometry x="540" y="1050" width="120" height="60" as="geometry" />
        </mxCell>
        <mxCell id="O93y_8Ig9oeWtu7VwPQm-15" style="edgeStyle=orthogonalEdgeStyle;rounded=0;orthogonalLoop=1;jettySize=auto;html=1;exitX=0.5;exitY=1;exitDx=0;exitDy=0;" edge="1" parent="1" source="O93y_8Ig9oeWtu7VwPQm-4">
          <mxGeometry relative="1" as="geometry">
            <mxPoint x="600" y="1180" as="targetPoint" />
          </mxGeometry>
        </mxCell>
        <mxCell id="O93y_8Ig9oeWtu7VwPQm-4" value="LowerClothes" style="rounded=0;whiteSpace=wrap;html=1;" vertex="1" parent="1">
          <mxGeometry x="720" y="1050" width="120" height="60" as="geometry" />
        </mxCell>
        <mxCell id="O93y_8Ig9oeWtu7VwPQm-16" style="edgeStyle=orthogonalEdgeStyle;rounded=0;orthogonalLoop=1;jettySize=auto;html=1;exitX=0.5;exitY=1;exitDx=0;exitDy=0;" edge="1" parent="1" source="O93y_8Ig9oeWtu7VwPQm-5">
          <mxGeometry relative="1" as="geometry">
            <mxPoint x="600" y="1180" as="targetPoint" />
          </mxGeometry>
        </mxCell>
        <mxCell id="O93y_8Ig9oeWtu7VwPQm-5" value="Accesory" style="rounded=0;whiteSpace=wrap;html=1;" vertex="1" parent="1">
          <mxGeometry x="880" y="1050" width="120" height="60" as="geometry" />
        </mxCell>
        <mxCell id="O93y_8Ig9oeWtu7VwPQm-18" style="edgeStyle=orthogonalEdgeStyle;rounded=0;orthogonalLoop=1;jettySize=auto;html=1;exitX=0.5;exitY=1;exitDx=0;exitDy=0;entryX=0.5;entryY=0;entryDx=0;entryDy=0;" edge="1" parent="1" source="O93y_8Ig9oeWtu7VwPQm-11" target="O93y_8Ig9oeWtu7VwPQm-17">
          <mxGeometry relative="1" as="geometry" />
        </mxCell>
        <mxCell id="O93y_8Ig9oeWtu7VwPQm-11" value="&lt;span style=&quot;font-size: 14px;&quot;&gt;ChoiseOfClothes&lt;/span&gt;" style="rounded=0;whiteSpace=wrap;html=1;" vertex="1" parent="1">
          <mxGeometry x="540" y="1181" width="120" height="60" as="geometry" />
        </mxCell>
        <mxCell id="O93y_8Ig9oeWtu7VwPQm-21" style="edgeStyle=orthogonalEdgeStyle;rounded=0;orthogonalLoop=1;jettySize=auto;html=1;exitX=0.5;exitY=1;exitDx=0;exitDy=0;entryX=0.5;entryY=0;entryDx=0;entryDy=0;" edge="1" parent="1" source="O93y_8Ig9oeWtu7VwPQm-17" target="O93y_8Ig9oeWtu7VwPQm-19">
          <mxGeometry relative="1" as="geometry" />
        </mxCell>
        <mxCell id="O93y_8Ig9oeWtu7VwPQm-22" style="edgeStyle=orthogonalEdgeStyle;rounded=0;orthogonalLoop=1;jettySize=auto;html=1;exitX=0.5;exitY=1;exitDx=0;exitDy=0;entryX=0.5;entryY=0;entryDx=0;entryDy=0;" edge="1" parent="1" source="O93y_8Ig9oeWtu7VwPQm-17" target="O93y_8Ig9oeWtu7VwPQm-20">
          <mxGeometry relative="1" as="geometry" />
        </mxCell>
        <mxCell id="O93y_8Ig9oeWtu7VwPQm-17" value="&lt;span style=&quot;font-size: 14px;&quot;&gt;ChoiseOfMaterial&lt;/span&gt;" style="rounded=0;whiteSpace=wrap;html=1;" vertex="1" parent="1">
          <mxGeometry x="540" y="1310" width="120" height="60" as="geometry" />
        </mxCell>
        <mxCell id="O93y_8Ig9oeWtu7VwPQm-24" style="edgeStyle=orthogonalEdgeStyle;rounded=0;orthogonalLoop=1;jettySize=auto;html=1;exitX=0.5;exitY=1;exitDx=0;exitDy=0;" edge="1" parent="1" source="O93y_8Ig9oeWtu7VwPQm-19" target="O93y_8Ig9oeWtu7VwPQm-23">
          <mxGeometry relative="1" as="geometry" />
        </mxCell>
        <mxCell id="O93y_8Ig9oeWtu7VwPQm-19" value="&lt;span style=&quot;font-size: 14px;&quot;&gt;Syntetic&lt;/span&gt;" style="rounded=0;whiteSpace=wrap;html=1;" vertex="1" parent="1">
          <mxGeometry x="365" y="1420" width="120" height="60" as="geometry" />
        </mxCell>
        <mxCell id="O93y_8Ig9oeWtu7VwPQm-25" style="edgeStyle=orthogonalEdgeStyle;rounded=0;orthogonalLoop=1;jettySize=auto;html=1;exitX=0.5;exitY=1;exitDx=0;exitDy=0;entryX=0.5;entryY=0;entryDx=0;entryDy=0;" edge="1" parent="1" source="O93y_8Ig9oeWtu7VwPQm-20" target="O93y_8Ig9oeWtu7VwPQm-23">
          <mxGeometry relative="1" as="geometry" />
        </mxCell>
        <mxCell id="O93y_8Ig9oeWtu7VwPQm-20" value="&lt;span style=&quot;font-size: 14px;&quot;&gt;Natural&lt;/span&gt;" style="rounded=0;whiteSpace=wrap;html=1;" vertex="1" parent="1">
          <mxGeometry x="720" y="1420" width="120" height="60" as="geometry" />
        </mxCell>
        <mxCell id="O93y_8Ig9oeWtu7VwPQm-27" style="rounded=0;orthogonalLoop=1;jettySize=auto;html=1;exitX=1;exitY=0.5;exitDx=0;exitDy=0;dashed=1;" edge="1" parent="1" source="O93y_8Ig9oeWtu7VwPQm-23" target="O93y_8Ig9oeWtu7VwPQm-26">
          <mxGeometry relative="1" as="geometry" />
        </mxCell>
        <mxCell id="O93y_8Ig9oeWtu7VwPQm-29" style="edgeStyle=orthogonalEdgeStyle;rounded=0;orthogonalLoop=1;jettySize=auto;html=1;exitX=0.5;exitY=1;exitDx=0;exitDy=0;" edge="1" parent="1" source="O93y_8Ig9oeWtu7VwPQm-23" target="O93y_8Ig9oeWtu7VwPQm-28">
          <mxGeometry relative="1" as="geometry" />
        </mxCell>
        <mxCell id="O93y_8Ig9oeWtu7VwPQm-23" value="&lt;span style=&quot;font-size: 14px;&quot;&gt;ChoiseOfSize&lt;/span&gt;" style="rounded=0;whiteSpace=wrap;html=1;" vertex="1" parent="1">
          <mxGeometry x="540" y="1550" width="120" height="60" as="geometry" />
        </mxCell>
        <mxCell id="O93y_8Ig9oeWtu7VwPQm-26" value="Depence on&amp;nbsp;&lt;div&gt;which type of clothes&lt;/div&gt;&lt;div&gt;&amp;nbsp;did you choose&lt;/div&gt;" style="ellipse;shape=cloud;whiteSpace=wrap;html=1;" vertex="1" parent="1">
          <mxGeometry x="850" y="1480" width="210" height="120" as="geometry" />
        </mxCell>
        <mxCell id="O93y_8Ig9oeWtu7VwPQm-28" value="&lt;span style=&quot;font-size: 14px;&quot;&gt;ChoiseOfColor&lt;/span&gt;" style="rounded=0;whiteSpace=wrap;html=1;" vertex="1" parent="1">
          <mxGeometry x="540" y="1670" width="120" height="60" as="geometry" />
        </mxCell>
        <mxCell id="O93y_8Ig9oeWtu7VwPQm-32" value="" style="whiteSpace=wrap;html=1;aspect=fixed;" vertex="1" parent="1">
          <mxGeometry x="510" y="1840" width="210" height="210" as="geometry" />
        </mxCell>
        <mxCell id="O93y_8Ig9oeWtu7VwPQm-33" value="&lt;h1 style=&quot;margin-top: 0px;&quot;&gt;&lt;font style=&quot;font-size: 29px;&quot;&gt;At the end&lt;/font&gt;&lt;/h1&gt;&lt;p&gt;&lt;font style=&quot;font-size: 14px;&quot;&gt;You are going to see the season of clothe that you creat. which season is suitable to be wear, and also the event&lt;/font&gt;&lt;/p&gt;" style="text;html=1;whiteSpace=wrap;overflow=hidden;rounded=0;" vertex="1" parent="1">
          <mxGeometry x="525" y="1860" width="180" height="150" as="geometry" />
        </mxCell>
      </root>
    </mxGraphModel>
  </diagram>
</mxfile>
